<svg xmlns="http://www.w3.org/2000/svg" xmlns:xlink="http://www.w3.org/1999/xlink" width="1920" height="751"><defs><path id="a" d="M1113-237c629.052 0 1139 509.948 1139 1139s-509.948 1139-1139 1139S-26 1531.052-26 902 483.948-237 1113-237z"/><path id="b" d="M1193 10c476.07 0 862 385.93 862 862s-385.93 862-862 862-862-385.93-862-862S716.93 10 1193 10z"/><path id="c" d="M1483 355c327.505 0 593 265.495 593 593s-265.495 593-593 593-593-265.495-593-593 265.495-593 593-593z"/><clipPath id="d"><use fill="#fff" xlink:href="#a"/></clipPath><clipPath id="e"><use fill="#fff" xlink:href="#b"/></clipPath><clipPath id="f"><use fill="#fff" xlink:href="#c"/></clipPath></defs><g clip-path="url(#clip-20056)" opacity=".06"><use fill="#fff" fill-opacity="0" stroke="#fff" stroke-miterlimit="50" stroke-width="4" clip-path="url(&quot;#d&quot;)" xlink:href="#a"/></g><g clip-path="url(#clip-20056)" opacity=".06"><use fill="#fff" fill-opacity="0" stroke="#fff" stroke-miterlimit="50" stroke-width="4" clip-path="url(&quot;#e&quot;)" xlink:href="#b"/></g><g clip-path="url(#clip-20056)" opacity=".06"><use fill="#fff" fill-opacity="0" stroke="#fff" stroke-miterlimit="50" stroke-width="4" clip-path="url(&quot;#f&quot;)" xlink:href="#c"/></g></svg>