<svg xmlns="http://www.w3.org/2000/svg" xmlns:xlink="http://www.w3.org/1999/xlink" width="3397" height="2173"><defs><path id="a" d="M495 2016c476.07 0 862 337.13 862 753s-385.93 753-862 753-862-337.13-862-753 385.93-753 862-753z"/><path id="b" d="M1944 2738c476.07 0 862 337.13 862 753s-385.93 753-862 753-862-337.13-862-753 385.93-753 862-753z"/><path id="c" d="M513 1947c476.07 0 862 337.13 862 753s-385.93 753-862 753-862-337.13-862-753 385.93-753 862-753z"/><path id="d" d="M2116.5 2544c504.512 0 913.5 329.966 913.5 737s-408.988 737-913.5 737-913.5-329.966-913.5-737 408.988-737 913.5-737z"/><linearGradient id="e" x1="495" x2="495" y1="2016" y2="3522" gradientUnits="userSpaceOnUse"><stop offset="0"/><stop offset="1"/></linearGradient><clipPath id="f"><use xlink:href="#a"/></clipPath><linearGradient id="g" x1="1944" x2="1944" y1="2738" y2="4244" gradientUnits="userSpaceOnUse"><stop offset="0"/><stop offset="1"/></linearGradient><clipPath id="h"><use xlink:href="#b"/></clipPath><linearGradient id="i" x1="513" x2="513" y1="1947" y2="3453" gradientUnits="userSpaceOnUse"><stop offset="0"/><stop offset="1"/></linearGradient><clipPath id="j"><use xlink:href="#c"/></clipPath><linearGradient id="k" x1="2117" x2="2116" y1="2544" y2="4018" gradientUnits="userSpaceOnUse"><stop offset="0"/><stop offset="1"/></linearGradient><clipPath id="l"><use xlink:href="#d"/></clipPath></defs><g opacity=".05" transform="translate(367 -2071)"><use fill="url(#e)" xlink:href="#a"/><use fill-opacity="0" stroke-miterlimit="50" stroke-width="4" clip-path="url(&quot;#f&quot;)" xlink:href="#a"/></g><g opacity=".05" transform="translate(367 -2071)"><use fill="url(#g)" xlink:href="#b"/><use fill-opacity="0" stroke-miterlimit="50" stroke-width="4" clip-path="url(&quot;#h&quot;)" xlink:href="#b"/></g><g opacity=".05" transform="translate(367 -2071)"><use fill="url(#i)" xlink:href="#c"/><use fill-opacity="0" stroke-miterlimit="50" stroke-width="4" clip-path="url(&quot;#j&quot;)" xlink:href="#c"/></g><g opacity=".05" transform="translate(367 -2071)"><use fill="url(#k)" xlink:href="#d"/><use fill-opacity="0" stroke-miterlimit="50" stroke-width="4" clip-path="url(&quot;#l&quot;)" xlink:href="#d"/></g></svg>