<svg height="24" width="24" xmlns="http://www.w3.org/2000/svg"><path d="M12 19c-2.67 0-5.389-1.272-7.832-3.382-.95-.82-1.914-1.721-2.547-2.552A8.2 8.2 0 0 1 1 12.144C.92 12 .882 11.904.882 12S.92 12 1 11.856c.14-.252.354-.571.62-.922.634-.83 1.599-1.732 2.548-2.552C6.611 6.272 9.33 5 12 5s5.389 1.272 7.832 3.382c.95.82 1.914 1.721 2.547 2.552.267.35.48.67.621.922.08.144.118.24.118.144s-.038 0-.118.144c-.14.252-.354.571-.62.922-.634.83-1.599 1.732-2.548 2.552C17.389 17.728 14.67 19 12 19zm0-2a5 5 0 1 0 0-10 5 5 0 0 0 0 10zm0-2a3 3 0 1 1 0-6 3 3 0 0 1 0 6z"/></svg>