<svg xmlns="http://www.w3.org/2000/svg" width="24" height="24"><path d="M8.014 18.107l1.673-1.673a5 5 0 0 0 6.747-6.747l2.232-2.232c.395.287.784.597 1.166.927.95.82 1.914 1.721 2.547 2.552.267.35.48.67.621.922.08.144.118.24.118.144s-.038 0-.118.144c-.14.252-.354.571-.62.922-.634.83-1.599 1.732-2.548 2.552C17.389 17.728 14.67 19 12 19c-1.33 0-2.672-.316-3.986-.893zm-2.68-1.562a18.04 18.04 0 0 1-1.166-.927c-.95-.82-1.914-1.721-2.547-2.552A8.2 8.2 0 0 1 1 12.144C.92 12 .882 11.904.882 12S.92 12 1 11.856c.14-.252.354-.571.62-.922.634-.83 1.599-1.732 2.548-2.552C6.611 6.272 9.33 5 12 5c1.33 0 2.672.316 3.986.893l-1.673 1.673a5 5 0 0 0-6.747 6.747l-2.232 2.232zm5.889-1.647l3.675-3.675a3.004 3.004 0 0 1-3.675 3.675zm-2.121-2.12a3.004 3.004 0 0 1 3.675-3.676l-3.675 3.675zM20 4a.5.5 0 0 1 0 .707L4.715 19.993a.5.5 0 1 1-.708-.708L19.293 4A.5.5 0 0 1 20 4z" opacity=".3"/></svg>